<?xml version="1.0" encoding="UTF-8"?>
<svg id="Layer_2" data-name="Layer 2" xmlns="http://www.w3.org/2000/svg" viewBox="0 0 313.56 82">
  <defs>
    <style>
      .cls-1 {
        fill: none;
        stroke: #fcc10c;
        stroke-linecap: round;
        stroke-linejoin: round;
        stroke-width: 1.2px;
      }

      .cls-2 {
        fill: #fcc10c;
      }
    </style>
  </defs>
  <g id="pags">
    <g>
      <g>
        <g>
          <path class="cls-1" d="M72.91,26.96s.11,3.38,0,3.38c0,0-.81-1.84-.86-1.84-.07,0,0,1.84,0,1.84-.1,0-1.27-1.17-1.27-1.17,0,0,0,1.17,0,1.17,0,0-1.54-.97-1.61-.97,0,0,.05.97,0,.97"/>
          <path class="cls-1" d="M83.23,1.07s.05.97,0,.97c0,0-.52-.97-.57-.97,0,0,.03.97,0,.97-.07,0-1.16-.97-1.17-.97-.03,0,.05,1.1,0,1.1l-1.39-1.1c-.07,0,0,1.71,0,1.71-.04,0-.44-1.71-.44-1.71-.04,0,.03,2.17,0,2.17-.05,0-.52-2.17-.59-2.17-.02,0,.08,3.67,0,3.67,0,0-1.41-3.66-1.51-3.66-1.07,0,0,29.27,0,29.27,0,0-.88-29.26-1.67-29.26,0,0,.53,29.27,0,29.27,0,0-.24-29.26-.41-29.26-.9,0,.58,29.26,0,29.26l-1.6-29.26s1.53,29.26,0,29.26c-.3,0-.17-29.26-1.2-29.26,0,0,.08,2.62,0,2.62-.14,0-.76-2.61-.76-2.61-.03,0,.04,1.65,0,1.65-.06,0-.98-1.65-1.02-1.65-.02,0,.07,1.16,0,1.16,0,0-.49-1.16-.51-1.16,0,0,.01,1.04,0,1.04-.01,0-.43-1.04-.46-1.04-.06,0,.04.98,0,.98,0,0-.49-.98-.51-.98-.02,0,.04.95,0,.95"/>
          <path class="cls-1" d="M94.64,21.71c-.25,0,0,8.61,0,8.61-.23,0-1.35-5.89-1.67-5.89v5.89c-.16,0-.96-4.01-1.07-4.01-.16,0,.06,4.01,0,4.01-.12,0-1.06-2.79-1.11-2.79,0,0,.09,2.8,0,2.8-.04,0-.87-2.18-.87-2.18-.02,0,.07,2.18,0,2.18-.03,0-1.2-1.59-1.27-1.59,0,0,0,1.59,0,1.59-.02,0-1.21-1.26-1.29-1.26-.01,0,.05,1.26,0,1.26,0,0-1.35-1.11-1.35-1.11-.05,0,0,1.11,0,1.11,0,0-1.49-1.08-1.51-1.08-.04,0,.06,1.09,0,1.09,0,0-.88-1.1-.92-1.1v1.1s-1.25-1.19-1.27-1.19c-.03,0,0,1.19,0,1.19l-.82-1.32v1.32s-.41-1.45-.47-1.45c-.02,0,0,1.45,0,1.45-.11,0-.92-1.91-.96-1.91-.08,0,.06,1.92,0,1.92s-.4-2.39-.48-2.39c-.02,0,.07,2.39,0,2.39-.17,0-.31-3.22-.42-3.22v3.22"/>
        </g>
        <g>
          <path class="cls-1" d="M106.25,29.37s.01.93,0,.93c-.07,0-.85-1.06-.85-1.06-.03,0,0,1.06,0,1.06-.02,0-.58-1.28-.59-1.28-.08,0,0,1.28,0,1.28-.03,0-.41-1.58-.5-1.58,0,0,.07,1.59,0,1.59s-.44-2.01-.46-2.01c0,0,.08,2.01,0,2.01"/>
          <path class="cls-1" d="M115.2,20.13s.03,1,0,1l-.56-.99s.03.99,0,.99c0,0-.46-.99-.49-.99,0,0,.06.99,0,.99l-1.62-.98s0,.99,0,.99c-.04,0-.86-.98-.89-.98,0,0,.05.98,0,.98-.06,0-.87-.98-.87-.98-.04,0,0,.98,0,.98,0,0-1.15-.97-1.15-.97,0,0,.05.98,0,.98s-.65-.97-.65-.97c0,0,0,.97,0,.97l-.54-.97s0,.97,0,.97c-.03,0-.6-.97-.62-.97v.97s-.6-.96-.62-.96c-.06,0,0,.97,0,.97,0,0-1.07-.96-1.13-.96-.04,0,.03.96,0,.96,0,0-.29-.96-.31-.96,0,0,.03.96,0,.96"/>
          <path class="cls-1" d="M117.98,28.46s.08,1.88,0,1.88c-.03,0-1.65-1.03-1.66-1.03v1.04s-.34-.98-.39-.98c0,0,.03.98,0,.98,0,0-.64-.94-.68-.94,0,0,.03.94,0,.94"/>
          <path class="cls-1" d="M127.58,29.31s.06.99,0,.99c-.1,0-1.33-1.44-1.36-1.44-.03,0,.03,1.45,0,1.45l-1.69-3.28s0,3.28,0,3.28c-.26,0-1.07-5.46-1.07-5.46-.32,0,0,5.46,0,5.46-.08,0-.12-6.27-.35-6.27v6.27c-.27,0-.83-8.3-.83-8.3-.31,0,.21,8.3,0,8.3,0,0-.52-10.02-.71-10.02-.5,0,.33,10.02,0,10.02,0,0-.6-13.44-1.4-13.44-.11,0,.56,13.45,0,13.45-.82,0-1.34-16.7-1.34-16.7v16.71c-1.04,0-.65-18.3-.65-18.3v14.86l-.75-16.69s.16,14.62,0,14.62c-.44,0-1.25-17.66-1.25-17.66-.86,0,.4,14.66,0,14.66-.61,0,.08-16.5-.76-16.5,0,0,.06,14.52,0,14.52,0,0-.82-17.31-1.15-17.31,0,0,.72,14.53,0,14.53-.51,0-.74-16.45-1.67-16.45-.39,0,.5,12.4,0,12.4-.17,0-.42-11.34-.81-11.34-.13,0,.34,9.37,0,9.37-.43,0-.03-8.23-.46-8.23v7.12s-1.13-3.9-1.29-3.9v2.81s-.93-.34-1-.34c-.07,0,0,2.8,0,2.8,0,0-.49-1.59-.49-1.59-.13,0,.12,2.8,0,2.8-.02,0-1.55,1.38-1.68,1.38-.14,0,0,2.78,0,2.78-.12,0-1.61,1.24-1.61,1.24v3.24s-.92-.85-.96-.85c-.08,0,0,2.87,0,2.87-.01,0-1.5.91-1.52.91-.1,0,.18,6.23,0,6.23,0,0-1.44-3.39-1.48-3.39-.17,0,.09,3.4,0,3.4-.05,0-1.43-1.79-1.5-1.79-.07,0,.01,1.8,0,1.8-.02,0-1.12-1.19-1.12-1.19-.02,0,0,1.19,0,1.19l-.48-1.04s0,1.05,0,1.05"/>
        </g>
        <g>
          <path class="cls-1" d="M141.17,1.07s.03.97,0,.97l-.56-.97s.03.98,0,.98c0,0-.46-.98-.49-.98,0,0,.06,1.03,0,1.03l-1.62-1.03c-.05,0,0,1.6,0,1.6-.05,0-.85-1.6-.89-1.6,0,0,.15,2.73,0,2.73-.14,0-.87-2.73-.87-2.73-1.16,0,0,28.33,0,28.33-.05,0-1.15-28.32-1.15-28.32-.02,0,1.52,27.65,0,27.65-1.31,0-.65-27.65-.65-27.65-.15,0,0,27.17,0,27.17l-.54-27.17s.25,26.72,0,26.72c-.68,0-.2-26.71-.62-26.71v26.09s-.18-26.09-.62-26.09c-1.46,0,0,25.32,0,25.32,0,0-.2-25.32-1.13-25.32-1,0,.61,23.05,0,23.05,0,0-.07-23.05-.47-23.05,0,0,.59,20.81,0,20.81-.43,0-1.3-20.81-1.66-20.81-.04,0,.02,1.47,0,1.47-.01,0-1.53-1.47-1.65-1.47-.03,0,0,.99,0,.99-.03,0-.69-.99-.69-.99-.02,0,.03.94,0,.94"/>
          <path class="cls-1" d="M154.14,23.16s.12,2.68,0,2.68c-.03,0-1.65.37-1.66.37v1.7s-.32-1.28-.39-1.28c0,0,.05,1.61,0,1.61,0,0-1.3-.49-1.34-.49,0,0,.04,1.43,0,1.43-.03,0-1.28-.69-1.32-.69v1.34c-.07,0-1.55-.79-1.55-.79-.05,0,.06,1.32,0,1.32-.05,0-.93-1.12-.93-1.12v1.33s-.3-1.29-.33-1.29c-.08,0,.08,1.35,0,1.35l-1.64-1.27s.07,1.48,0,1.48c-.09,0-1.24-1.61-1.33-1.61v1.67c-.06,0-.69-1.82-.69-1.82-.03,0,.06,1.81,0,1.81,0,0-1.16-2.2-1.19-2.2,0,0,0,2.13,0,2.13,0,0-1.21-2.83-1.31-2.83v2.65s-.64-3.18-.7-3.18c-.03,0,.09,3.03,0,3.03-.1,0-1.36-5.17-1.66-5.17,0,0,.25,4.67,0,4.67-.15,0-.54-6.81-.67-6.81v6.54"/>
          <path class="cls-1" d="M159.44,1.07s.06,1.05,0,1.05c-.09,0-1.33-1.04-1.36-1.04-.03,0,.03,1.44,0,1.44l-1.69-1.43s0,2.85,0,2.85c-.14,0-1.07-2.84-1.07-2.84-1.29,0,0,21.8,0,21.8-.28,0,.43-21.79-.35-21.79v23.03c-.74,0-.83-23.03-.83-23.03-.15,0,.1,3.98,0,3.98,0,0-.63-3.97-.71-3.97-.13,0,.08,2.54,0,2.54,0,0-1.23-2.54-1.4-2.54-.01,0,.06,1.43,0,1.43-.1,0-1.34-1.43-1.34-1.43v1.03c-.06,0-.47-1.03-.47-1.03v.99"/>
        </g>
        <g>
          <path class="cls-1" d="M167.06,26.95s.11,3.39,0,3.39l-.36-2.49s.11,2.49,0,2.49c-.05,0-.84-1.51-.92-1.51,0,0,0,1.51,0,1.51,0,0-.64-1.19-.7-1.19-.03,0,.02,1.19,0,1.19,0,0-1.45-.94-1.49-.94,0,0,.02.95,0,.95,0,0-.43-.94-.45-.94-.03,0,.02.94,0,.94"/>
          <path class="cls-1" d="M177.26,29.4s.04.89,0,.89c-.02,0-1.46-1.01-1.46-1.01-.04,0,0,1.02,0,1.02-.03,0-.82-1.26-.82-1.26v1.26l-.43-1.49v1.49s-.46-1.91-.52-1.91c-.1,0,.08,1.91,0,1.91,0,0-.34-2.43-.39-2.43-.08,0,0,2.44,0,2.44,0,0-.38-3.36-.39-3.36,0,0,.05,3.36,0,3.36"/>
          <path class="cls-1" d="M188.55,6.4s0,4.12,0,4.12c-.3,0-1.1-6.25-1.16-6.25,0,0,.25,8.3,0,8.3-.09,0-.72-9.02-.72-9.02,0,0,.4,9.72,0,9.72-.59,0-1.28-10.77-1.55-10.77-.63,0,.03,11.79,0,11.79,0,0-.47-12.22-.95-12.22-.58,0,0,12.65,0,12.65,0,0-.77-12.98-1.07-12.98-.42,0,0,13.38,0,13.38-.41,0-1.4-13.71-1.69-13.71,0,0,.14,2.62,0,2.62-.07,0-.41-2.68-.42-2.68-.11,0,.08,2.23,0,2.23-.07,0-.98-2.35-.99-2.35-.06,0,.07,1.65,0,1.65-.1,0-.83-1.74-.83-1.74-.03,0,.05,1.4,0,1.4s-.91-1.47-.91-1.47c0,0,.07,1.24,0,1.24,0,0-1.53-1.33-1.64-1.33-.06,0,0,1.12,0,1.12l-.77-1.15s.05,1.12,0,1.12c-.08,0-.57-1.13-.57-1.13-.02,0,0,1.13,0,1.13-.08,0-1.06-1.15-1.06-1.15,0,0,0,1.15,0,1.15-.11,0-1.42-1.16-1.49-1.16,0,0,.32,29.42,0,29.42,0,0-.53-29.41-1.01-29.41s0,29.41,0,29.41c-.2,0,1.2-29.41-.37-29.41-.08,0,1.27,29.41,0,29.41l-.86-29.37c-1.41,0,0,29.38,0,29.38-1.74,0-1.59-29.29-1.59-29.29-.78,0,1.51,29.29,0,29.29-.55,0-.98-29.28-.98-29.28-.21,0,0,29.28,0,29.28-1.38,0,.71-29.28-.46-29.28v29.28c-1.23,0-1.51-29.26-1.51-29.26-.02,0,0,1.56,0,1.56,0,0-1.53-1.54-1.62-1.54-.02,0,0,.97,0,.97-.02,0-1.02-.96-1.09-.96-.02,0,0,.89,0,.89"/>
          <path class="cls-1" d="M182.51,11.33c-.08,0,0,3.98,0,3.98,0,0-.81-2.1-.87-2.1v2.35s-.6-1.65-.62-1.65c-.12,0,.09,8.16,0,8.16-.22,0-1.27-7.33-1.27-7.33-.09,0,.23,5.27,0,5.27-.27,0-1.14-4.82-1.38-4.82-.11,0,0,2.91,0,2.91,0,0-.28-2.83-.36-2.83-.07,0,0,2.45,0,2.45-.16,0-1.36-2.29-1.47-2.29-.06,0,0,1.32,0,1.32-.09,0-1.42-1.27-1.49-1.27,0,0,.02,1.03,0,1.03,0,0-.68-1.03-.69-1.03-.05,0,0,1.03,0,1.03,0,0-1.09-1.03-1.1-1.03-.02,0,.06,1.1,0,1.1"/>
          <path class="cls-1" d="M194.55,29.34s0,.96,0,.96c-.02,0-.52-1.05-.57-1.05-.03,0,.02,1.05,0,1.05,0,0-.48-1.22-.52-1.22-.04,0,0,1.22,0,1.22-.01,0-.99-1.72-1-1.72v1.73c-.1,0-.29-2.01-.41-2.01-.06,0,0,2.01,0,2.01,0,0-.94-2.93-1.04-2.93-.08,0,.13,2.94,0,2.94,0,0-.99-4.36-1.25-4.36-.07,0,.13,4.36,0,4.36l-1.17-5.9c-.31,0,.05,5.9,0,5.9,0,0-.3-6.45-.39-6.45-.36,0,.09,6.45,0,6.45,0,0-.61-7.71-.87-7.71-.15,0,0,7.71,0,7.71-.51,0-.58-9.24-1.04-9.24,0,0,.06,8.86,0,8.86-.32,0-.34-9.37-.36-9.37,0,0,.08,8.97,0,8.97-.45,0-1.03-10.43-1.06-10.43-.06,0,.21,9.08,0,9.08-.13,0-1.46-10.79-1.46-10.79,0,0,.04,8.63,0,8.63l-1.08-9.5s0,7.76,0,7.76c-.38,0-.99-8.39-.99-8.39,0,0,.1,6.71,0,6.71"/>
        </g>
        <g>
          <path class="cls-1" d="M201.72,26.9c-.17,0,0,3.45,0,3.45,0,0-1.58-1.36-1.63-1.36-.02,0,.03,1.37,0,1.37,0,0-1.53-.99-1.59-.99v1s-.42-.97-.45-.97c-.03,0,0,.98,0,.98"/>
          <path class="cls-1" d="M211.65,29.38v.95c-.06,0-1.27-1.11-1.34-1.11-.05,0,0,1.11,0,1.11,0,0-1.36-1.88-1.49-1.88v1.89l-.66-2.87s.12,2.88,0,2.88"/>
          <path class="cls-1" d="M211.68,1.07v.97s-.96-.97-1.04-.97c0,0,0,1.03,0,1.03l-1.39-1.03s.05,1.47,0,1.47c0,0-.38-1.47-.39-1.47-.1,0,0,1.75,0,1.75,0,0-.39-1.74-.42-1.74-.07,0,0,2.2,0,2.2-.14,0-.89-2.2-.89-2.2v29.26s-.52-29.26-1.55-29.26c-1.33,0,0,29.26,0,29.26l-.45-29.26v29.26l-1.35-29.26c-1.26,0,0,29.26,0,29.26-1.46,0-1.41-29.26-1.41-29.26-1.19,0,1.31,29.26,0,29.26-.3,0-1.41-29.26-1.55-29.26-.03,0,.12,2.2,0,2.2s-.78-2.2-.78-2.2c-.08,0,.01,1.48,0,1.48l-1.09-1.48s.02,1.08,0,1.08c-.04,0-1.15-1.08-1.15-1.08-.02,0,0,.95,0,.95"/>
        </g>
        <g>
          <path class="cls-1" d="M219.52,26.85s.16,3.49,0,3.49c-.03,0-1.46-1.83-1.46-1.83-.07,0,0,1.84,0,1.84-.03,0-.82-1.41-.82-1.41v1.41l-.43-1.25v1.25s-.48-1.11-.52-1.11c-.06,0,.05,1.11,0,1.11,0,0-.37-1.03-.39-1.03-.03,0,0,1.03,0,1.03"/>
          <path class="cls-1" d="M225.43,29.36s0,.97,0,.97c-.08,0-1.15-1.16-1.16-1.16,0,0,.03,1.16,0,1.16-.02,0-.72-1.43-.72-1.43,0,0,.06,1.43,0,1.43-.16,0-1.47-2.53-1.55-2.53-.14,0,0,2.54,0,2.54,0,0-.54-3.54-.68-3.54-.16,0,0,3.54,0,3.54"/>
          <path class="cls-1" d="M241.95,21.92c-.19,0,0,8.88,0,8.88,0,0-.63-9.91-.87-9.91v8.87s-.53-9.61-.62-9.61c-.13,0,.09,8.86,0,8.86-.32,0-1.27-10.37-1.27-10.37-.15,0,.39,8.85,0,8.85-.58,0-.88-10.48-1.38-10.48-.33,0,0,8.83,0,8.83,0,0-.1-9.26-.36-9.26s0,8.83,0,8.83c-.64,0-1.05-10.58-1.47-10.58-.37,0,0,8.81,0,8.81-.49,0-1.06-10.59-1.49-10.59-.01,0,.19,8.8,0,8.8-.05,0-.61-9.62-.69-9.62-.42,0,0,8.79,0,8.79,0,0-1.51-10.63-1.55-10.63-.18,0,.46,8.77,0,8.77l-.98-9.94c-.3,0,.28,8.76,0,8.76-.07,0-1.41-10.78-1.7-10.78-.07,0,.51,8.75,0,8.75-.05,0-1.61-10.66-1.61-10.66-.1,0,0,8.73,0,8.73-.36,0-1.02-9.94-1.02-9.94v8.72l-1.07-9.99c-.46,0,0,8.71,0,8.71-.51,0-.35-9.72-.85-9.72-.25,0,0,8.7,0,8.7-.03,0,.07-9.17-.4-9.17,0,0,.2,8.69,0,8.69-.31,0-.86-8.92-1.29-8.92,0,0,.19,7.37,0,7.37-.16,0-1.13-7.37-1.19-7.37v5.94c-.09,0-1.59-5.94-1.59-5.94-1.62,0,0,29.25,0,29.25-.18,0-1.33-29.25-1.33-29.25-.06,0,0,3.18,0,3.18,0,0-1.18-3.18-1.3-3.18v1.54c-.07,0-1.64-1.54-1.64-1.54-.02,0,.01,1.01,0,1.01-.05,0-.59-1-.59-1v.97"/>
          <path class="cls-1" d="M247.29,1.07s0,1.07,0,1.07c-.02,0-.52-1.06-.57-1.06-.03,0,.02,1.21,0,1.21,0,0-.48-1.2-.52-1.2s0,1.37,0,1.37c-.01,0-.99-1.37-1-1.37v1.85c-.09,0-.3-1.85-.41-1.85-.06,0,0,2.15,0,2.15,0,0-.96-2.14-1.04-2.14-.1,0,.17,3.69,0,3.69,0,0-1.03-3.68-1.25-3.68-.49,0,.91,29.8,0,29.8l-1.17-29.79c-.14,0,.02,2.61,0,2.61,0,0-.35-2.61-.39-2.61-.12,0,.03,2.17,0,2.17,0,0-.79-2.16-.87-2.16-.03,0,0,1.55,0,1.55-.1,0-.95-1.55-1.04-1.55,0,0,0,1.17,0,1.17-.04,0-.35-1.17-.36-1.17,0,0,0,1.09,0,1.09-.05,0-.66-1.09-.66-1.09,0,0,.02,1,0,1"/>
        </g>
        <path class="cls-2" d="M93.57,21.18c-1.45,5.58-3.68,7.54-8.45,7.54h-1.18c-3.91-.09-4.59-.77-4.5-4.72V7.19c.05-3.77.77-4.68,3.77-4.63h.86V.56h-15.67v2h.5c3.04-.04,3.77.86,3.81,4.63v16.94c0,3.68-.82,4.72-3.72,4.72h-.59v2h26.97l.14-9.67h-1.95ZM94.89,30.35h-25.98v-1h.09c3.2,0,4.22-1.27,4.22-5.22V7.19c-.04-3.55-.65-5.13-4.11-5.13h-.21s0-1,0-1h14.67v1h-.57c-3.43,0-4.02,1.58-4.07,5.13v16.81c-.1,4.2.79,5.13,4.98,5.22h1.19c4.9,0,7.32-2.05,8.83-7.54h1.06l-.12,8.67Z"/>
        <g>
          <path class="cls-2" d="M128.26,28.85c-2.23-.27-2.86-.95-4.63-5.13L113.91.06h-2l-9.31,23.07c-1.45,3.77-2.86,5.4-4.86,5.72h-.32v2h9.67v-2h-.36c-1.68,0-2.86-.86-2.86-2.13,0-.73.18-1.41,1.09-3.59l.59-1.45h10.04l1.36,3.36c.5,1.23.82,2.13.82,2.45,0,.95-.95,1.36-2.95,1.36h-.32v2h13.99v-2h-.23ZM127.99,30.35h-12.99v-1c1.05,0,3.27-.11,3.27-1.86,0-.25-.1-.78-.85-2.64l-1.49-3.67h-10.71l-.72,1.76c-.89,2.15-1.13,2.92-1.13,3.78,0,1.52,1.32,2.58,3.22,2.63v1h-8.67v-1.03c2.19-.42,3.67-2.18,5.14-6.01L112.25.56h1.33l9.59,23.35c1.67,3.94,2.4,5.06,4.82,5.41v1.03Z"/>
          <path class="cls-2" d="M105.59,20.13h9.93l-5.02-12.18-4.91,12.18ZM114.77,19.63h-8.45l4.18-10.35,4.27,10.35Z"/>
        </g>
        <path class="cls-2" d="M149.46.56v2h.27c3,.09,4.27,1.63,4.22,5.09v10.22q-.05,4.45-.36,5.4c-1.09,3.36-4.36,5.59-8.22,5.59-2.86,0-5.36-1.27-6.54-3.36-.86-1.5-1.14-3.22-1.14-7.13V7.19c.05-3.77.77-4.68,3.77-4.63h.54V.56h-15.26v2h.45c3-.04,3.72.86,3.77,4.63v12.99c.05,2.54.45,4.27,1.45,5.99,1.95,3.27,6.13,5.27,11.03,5.27,5.77,0,9.9-2.27,11.76-6.45.77-1.73,1-3.27,1-7.04V7.28c-.09-2.95,1.04-4.4,3.77-4.72h.32V.56h-10.85ZM159.82,2.08c-2.9.4-4.18,2.06-4.09,5.21v10.66c0,3.64-.21,5.18-.96,6.83-1.79,4.02-5.7,6.15-11.31,6.15-4.69,0-8.75-1.92-10.6-5.02-.95-1.64-1.34-3.25-1.38-5.75V7.19c-.04-3.55-.64-5.13-4.07-5.13h-.16s0-1,0-1h14.26v1h-.25c-3.43,0-4.02,1.58-4.06,5.13v11.18c0,4.01.29,5.8,1.2,7.38,1.26,2.23,3.93,3.61,6.97,3.61,4.05,0,7.54-2.38,8.7-5.93q.34-1.02.39-5.55V7.65c.05-3.63-1.38-5.41-4.5-5.58v-1.01h9.85v1.02Z"/>
        <g>
          <path class="cls-2" d="M182.84,8.65c0-1.54-.3-2.82-.89-3.8-1.13-2.02-2.94-2.74-6.88-2.74-.51,0-.93,0-1.54.05l-.46.04v13.22h1.45c3.06,0,4.55-.26,5.71-.98,1.69-.94,2.6-2.95,2.6-5.78ZM179.97,14c-1.09.68-2.59.91-5.45.91h-.95V2.65c.59-.05,1-.05,1.5-.05,3.72,0,5.4.64,6.45,2.5.54.91.82,2.09.82,3.54,0,2.63-.82,4.5-2.36,5.36Z"/>
          <path class="cls-2" d="M195.19,28.85c-2.32-.14-3.81-1.45-7.04-6.13-3.18-4.72-4.09-5.81-5.68-6.81,4.72-1.32,6.99-3.72,6.99-7.49,0-2.91-1.59-5.31-4.45-6.63-1.95-.95-6.22-1.45-11.99-1.45-.91,0-1.73,0-2.45.04-.86.05-1.45.09-1.59.09l-6.49.09v2h.59c3-.04,3.72.86,3.77,4.63v16.89c0,3.68-.82,4.77-3.72,4.77h-.73v2h15.71v-2h-.86c-2.86,0-3.68-1.09-3.68-4.77v-6.99h.27c3.41-.18,3.68.09,7.54,6.58,2.09,3.59,3.77,5.95,5.09,7.17h8.99v-2h-.27ZM194.96,30.35h-8.29c-1.26-1.23-2.89-3.56-4.85-6.93-3.44-5.78-4.17-6.87-6.91-6.87-.33,0-.69.01-1.09.04h-.75s0,7.49,0,7.49c0,3.42.67,5.27,4.18,5.27h.36v1h-14.71v-1h.23c3.2,0,4.22-1.28,4.22-5.27V7.19c-.04-3.55-.64-5.13-4.06-5.13h-.29s0-1,0-1l6-.08c.07,0,.26-.01.55-.03.27-.02.63-.04,1.06-.06.72-.04,1.51-.04,2.43-.04,5.74,0,9.92.5,11.77,1.4,2.69,1.24,4.17,3.43,4.17,6.18,0,3.52-2.11,5.75-6.63,7.01l-1.09.3.96.6c1.52.95,2.39,2.01,5.53,6.67,3.25,4.71,4.84,6.13,7.23,6.34v1.01Z"/>
        </g>
        <path class="cls-2" d="M211.98,2.56h.54V.56h-15.26v2h.45c3.04-.04,3.77.86,3.81,4.63v16.89c0,3.68-.86,4.77-3.72,4.77h-.54v2h15.26v-2h-.59c-2.86,0-3.68-1.09-3.68-4.77V7.19c.05-3.77.77-4.68,3.72-4.63ZM211.94,29.35h.09v1h-14.26v-1h.04c3.16,0,4.22-1.33,4.22-5.27V7.19c-.04-3.55-.65-5.13-4.11-5.13h-.16s0-1,0-1h14.26v1h-.25c-3.39,0-3.98,1.58-4.02,5.13v16.9c0,3.42.67,5.27,4.18,5.27Z"/>
        <path class="cls-2" d="M237.28.56v2h.36c3,.23,4.18,1.59,4.13,4.81v13.44L224.74.56h-9.81v2h.23c3.04-.04,4,1.14,4.18,5.27v15.67c0,2.41-.09,2.91-.41,3.45-.59,1.09-2.23,1.91-3.77,1.91h-.23v2h11.35v-2h-.5c-1.68,0-3.31-.95-3.91-2.22-.23-.59-.23-.82-.27-3.18V7.15l20.21,24.25h2.23V7.56c-.14-3.22.82-4.45,3.77-5h.36V.56h-10.9ZM247.67,2.08c-3.22.62-4.28,2.07-4.13,5.49v23.32h-1.49l-20.94-25.13v17.83c.05,2.26.05,2.55.31,3.21.69,1.49,2.52,2.54,4.37,2.54v1h-10.35v-1.01c1.64-.09,3.3-.99,3.94-2.16.39-.67.47-1.29.47-3.69V7.83c-.16-3.71-.92-5.73-4.41-5.77v-1h9.08l17.76,21.13V7.37c.05-3.44-1.3-5.03-4.5-5.31v-1.01h9.9v1.02Z"/>
        <g>
          <g>
            <path class="cls-1" d="M255.01,27.03v3.31c-.06,0-1.41-1.39-1.45-1.39,0,0,.04,1.4,0,1.4,0,0-.94-1.05-1.01-1.05-.02,0,.01,1.06,0,1.06-.06,0-.35-.99-.35-.99v1s-.93-.93-1.01-.93v.93"/>
            <path class="cls-1" d="M275.49,20.31s.1,8.02,0,8.02c0,0-1.01-4.18-1.16-4.18-.16,0,0,4.75,0,4.75l-.91-3.16c-.12,0,0,3.53,0,3.53-.08,0-1.42-1.93-1.48-1.93-.06,0,0,2.38,0,2.38-.06,0-.52-2.01-.52-2.01,0,0,.04,2.12,0,2.12-.02,0-.39-1.88-.4-1.88-.09,0,0,1.95,0,1.95l-1.45-1.37s0,1.56,0,1.56l-1.5-1.16s.05,1.27,0,1.27c-.07,0-.36-1.18-.42-1.18s0,1.2,0,1.2c-.1,0-1.56-.98-1.56-.98-.02,0,.03,1.03,0,1.03-.02,0-.37-1-.39-1,0,0,0,1,0,1-.07,0-1.01-1-1.09-1-.05,0,.02,1.02,0,1.02-.05,0-1.62-1.34-1.69-1.34,0,0,.04,1.35,0,1.35-.06,0-.5-1.62-.54-1.62-.07,0,0,1.62,0,1.62-.05,0-1.19-3.52-1.19-3.52v3.53"/>
            <path class="cls-1" d="M282.04,12.77s.18,6.37,0,6.37c0,0-.43-9.22-.86-9.22,0,0,.2,12.06,0,12.06l-.81-13.68c-.77,0,.79,15.29,0,15.29-.14,0-1.2-16.99-1.2-16.99,0,0,.79,18.68,0,18.68-.38,0-.95-19.71-.95-19.71,0,0,.72,20.73,0,20.73-.03,0-.91-21.66-1.08-21.66-1.03,0,0,22.59,0,22.59-.27,0-1.23-23.43-1.23-23.43-.15,0,.93,24.26,0,24.26-.46,0-.48-24.91-1.18-24.91-.28,0,.13,5.75,0,5.75-.24,0-1.15-6.39-1.52-6.39v3.54s-.78-3.83-.87-3.83c-.05,0,.11,2.79,0,2.79l-.45-2.93c-.1,0,0,2.5,0,2.5,0,0-1.07-2.78-1.15-2.78-.01,0,0,1.85,0,1.85,0,0-1.02-2.08-1.13-2.08v1.4s-.94-1.56-.98-1.56c-.03,0,0,1.14,0,1.14-.06,0-1.61-1.34-1.61-1.34-.02,0,.05.9,0,.9,0,0-1.14-1.01-1.23-1.01-.03,0,0,.83,0,.83,0,0-.55-.87-.6-.87-.01,0,.04.82,0,.82-.05,0-.94-.88-.96-.88,0,0,.02.82,0,.82,0,0-1.13-.88-1.17-.88-.02,0,.04.86,0,.86,0,0-1.03-.9-1.09-.9,0,0,.03.92,0,.92-.03,0-1.63-.94-1.67-.94-1.23,0,.95,29.4,0,29.4,0,0-.55-29.41-.87-29.41,0,0,.01,29.41,0,29.41,0,0,.66-29.41-.61-29.41,0,0,1.73,29.41,0,29.41-.01,0,0-29.4-1.25-29.4,0,0,1.2,29.41,0,29.41-.35,0-1.46-29.37-1.53-29.37v29.38s-.59-29.32-1.47-29.32c0,0,.01,2.41,0,2.41-.15,0-.78-2.37-.9-2.37,0,0,.05,1.53,0,1.53,0,0-.73-1.5-.83-1.5,0,0,.05,1.16,0,1.16l-.87-1.13s.04.98,0,.98l-.73-.95c-.05,0,.03.91,0,.91"/>
          </g>
          <g>
            <path class="cls-2" d="M273.87,2.15c-3.13-1.23-7.67-1.82-14.17-1.82-2.77,0-3.91.04-8.9.27l-.32.05v1.95h.5c3-.05,3.81.95,3.81,4.68v16.8c.05,3.68-.86,4.81-3.72,4.77h-.64v2h11.76c6.4,0,8.81-.18,11.03-.91,6.04-2,9.72-7.27,9.72-13.99s-3.31-11.53-9.08-13.8ZM273.08,29.47c-2.12.69-4.46.88-10.88.88h-11.26v-1h.3c1.39,0,2.34-.3,2.98-.95.79-.8,1.11-2.09,1.08-4.33V7.28c0-3.43-.64-5.18-4.12-5.18h-.19s0-1.01,0-1.01c4.79-.22,5.93-.26,8.72-.26,6.44,0,10.88.57,13.99,1.78,5.57,2.19,8.76,7.05,8.76,13.34s-3.5,11.57-9.38,13.51Z"/>
            <path class="cls-2" d="M263.34,1.88c-.65,0-1.06,0-1.85.05l-.47.03v21.13c0,4.6.6,6.13,4.18,6.13,1.38,0,3.14-.32,4.84-.89,3.62-1.16,5.79-5.73,5.79-12.23,0-5.39-1.32-9.17-4.03-11.55-2.18-1.94-4.47-2.67-8.46-2.67ZM269.88,27.85c-1.63.54-3.36.86-4.68.86-3.04,0-3.68-1-3.68-5.63V2.42c.77-.05,1.18-.05,1.82-.05,3.86,0,6.04.68,8.13,2.54,2.59,2.27,3.86,5.95,3.86,11.17,0,6.27-2.04,10.67-5.45,11.76Z"/>
          </g>
        </g>
        <g>
          <g>
            <path class="cls-1" d="M291.32,29.37v.93s-1.13-1.18-1.21-1.18c-.04,0,.05,1.19,0,1.19,0,0-.39-1.4-.45-1.4s.07,1.4,0,1.4c-.07,0-.57-1.91-.66-1.91v1.92l-.36-2.42c-.12,0,0,2.42,0,2.42"/>
            <path class="cls-1" d="M300.27,20.13s0,1,0,1c-.03,0-.91-.99-.91-.99v.99l-.35-.99s.02.99,0,.99c0,0-.38-.99-.38-.99-.05,0,.04.99,0,.99l-1.35-.98s0,.98,0,.98l-.52-.98s.03.98,0,.98l-.34-.98v.98s-.33-.98-.39-.98c-.02,0,0,.98,0,.98,0,0-.61-.98-.62-.98-.06,0,.02.98,0,.98-.03,0-.69-.97-.7-.97v.98c-.06,0-.43-.97-.43-.97,0,0,.03.97,0,.97l-1.06-.97s.03.97,0,.97l-1.7-.96s.04.96,0,.96l-.68-.96s.05.96,0,.96"/>
            <path class="cls-1" d="M303.05,28.46s.02,1.88,0,1.88c-.08,0-.62-1.37-.62-1.37,0,0,.04,1.37,0,1.37-.1,0-1.66-.96-1.66-.96v.97s-.43-.94-.46-.94c0,0,0,.94,0,.94"/>
            <path class="cls-1" d="M312.64,29.31s.03.99,0,.99l-.32-1.04s0,1.05,0,1.05c-.1,0-1.53-1.8-1.56-1.8v1.81c-.21,0-1.23-3.37-1.23-3.37,0,0,.07,3.37,0,3.37,0,0-.75-4.98-.81-4.98-.11,0,.08,4.99,0,4.99l-.48-6.09s0,6.09,0,6.09c-.22,0-1.18-9.23-1.29-9.23-.14,0,0,9.24,0,9.24-.23,0-.83-12.01-1.14-12.01-.24,0,0,12.02,0,12.02-.25,0-1.11-15.48-1.42-15.48v15.49c-1.02,0-.74-17.29-.74-17.29v17.29s.21-18.67-.57-18.67c-.19,0,0,14.74,0,14.74-.42,0-.64-17.62-1.19-17.62-.78,0,.41,14.64,0,14.64-.83,0-.35-16.06-.58-16.06,0,0,.33,14.66,0,14.66-.74,0-1.16-17.47-1.16-17.47-.16,0,0,14.52,0,14.52-.49,0-.61-18.48-1.62-18.48,0,0,.23,14.54,0,14.54-.3,0-1.23-14.2-1.4-14.2-.29,0,.09,10.8,0,10.8-.42,0-.72-8.85-.79-8.85,0,0,.4,6.94,0,6.94,0,0-.3-5.55-.56-5.55,0,0,.23,4.18,0,4.18-.07,0-1.02-1.65-1.02-1.65-.02,0,.12,2.81,0,2.81-.01,0-1.61,1.22-1.62,1.22-.16,0,0,2.79,0,2.79-.12,0-1.64,1.29-1.64,1.29-.05,0,0,2.77,0,2.77l-1.12.03v3.41s-.86-1.23-.88-1.23c0,0,.03,2.87,0,2.87-.08,0-1.29.34-1.29.34v7.18s-1.52-3.63-1.7-3.63c-.14,0,.1,3.64,0,3.64l-.49-2.96c-.09,0,.04,2.96,0,2.96,0,0-.58-2.21-.67-2.21v2.22s-.48-1.77-.54-1.77c-.09,0,0,1.78,0,1.78-.05,0-1.53-1.04-1.53-1.04,0,0,.06,1.05,0,1.05"/>
          </g>
          <g>
            <path class="cls-2" d="M290.65,20.13h9.93l-5.02-12.18-4.91,12.18ZM299.84,19.63h-8.45l4.18-10.35,4.27,10.35Z"/>
            <path class="cls-2" d="M313.33,28.85c-2.23-.27-2.86-.95-4.63-5.13L298.98.06h-2l-9.31,23.07c-1.45,3.77-2.86,5.4-4.86,5.72h-.32v2h9.67v-2h-.36c-1.68,0-2.86-.86-2.86-2.13,0-.73.18-1.41,1.09-3.59l.59-1.45h10.04l1.36,3.36c.5,1.23.82,2.13.82,2.45,0,.95-.95,1.36-2.95,1.36h-.32v2h13.99v-2h-.23ZM313.06,30.35h-12.99v-1c1.05,0,3.27-.11,3.27-1.86,0-.25-.1-.78-.85-2.64l-1.49-3.67h-10.71l-.72,1.76c-.89,2.15-1.13,2.92-1.13,3.78,0,1.52,1.32,2.58,3.22,2.63v1h-8.67v-1.03c2.19-.42,3.67-2.18,5.14-6.01l9.18-22.75h1.33l9.59,23.35c1.67,3.94,2.4,5.06,4.82,5.41v1.03Z"/>
          </g>
        </g>
      </g>
      <g>
        <g>
          <path class="cls-1" d="M11.72,77.56v3.42c-.08,0-.79-1.92-.82-1.92-.06,0,.07,1.92,0,1.92-.09,0-.84-1.34-.84-1.34,0,0,.04,1.34,0,1.34-.07,0-1.43-.99-1.44-.99,0,0,.02,1,0,1,0,0-1.02-.96-1.05-.96-.03,0,.05.97,0,.97"/>
          <path class="cls-1" d="M22.14,80v.96s-.5-.94-.52-.94c-.06,0,0,.94,0,.94-.06,0-.74-1-.74-1-.02,0,0,1,0,1-.03,0-1.08-1.29-1.16-1.29-.06,0,.08,1.29,0,1.29,0,0-.5-1.61-.55-1.61-.04,0,0,1.61,0,1.61,0,0-.42-2.1-.53-2.1,0,0,.02,2.1,0,2.1,0,0-.52-3.12-.56-3.12,0,0,.08,3.12,0,3.12"/>
          <path class="cls-1" d="M29.09,1.06v7.15s-1.34-7.15-1.63-7.15c0,0,.11,4.28,0,4.28-.16,0-.57-4.28-.64-4.28-.11,0,0,3.08,0,3.08l-.89-3.08s0,2.13,0,2.13c0,0-.89-2.13-.98-2.13-.02,0,0,1.57,0,1.57,0,0-1.11-1.57-1.21-1.57v1.25s-.3-1.25-.34-1.25v1.2c-.1,0-1.54-1.2-1.54-1.2-.02,0,.05,1.1,0,1.1s-1.28-1.1-1.28-1.1c0,0,.06,1.1,0,1.1,0,0-.89-1.1-.97-1.1v1.11s-1.59-1.11-1.59-1.11c-.04,0,.04,1.12,0,1.12-.04,0-.73-1.12-.77-1.12-3.27,0,2.23,79.89,0,79.89-2.97,0,.57-79.89-.98-79.89-1.26,0,.56,79.89,0,79.89,0,0,.63-79.89-.52-79.89-.76,0,1.11,79.89,0,79.89-1.65,0,2.07-79.89-.47-79.89-.51,0,3.33,79.89,0,79.89,0,0-.55-79.89-1.66-79.89-2.96,0,0,79.9,0,79.9,0,0,2.91-79.89-1.2-79.89,0,0,4.03,79.9,0,79.9,0,0-.85-79.89-1.35-79.89-.02,0,0,1.09,0,1.09-.02,0-1.02-1.08-1.1-1.08-.03,0,0,1.08,0,1.08-.03,0-.81-1.08-.84-1.08,0,0,.02,1.08,0,1.08,0,0-.59-1.08-.59-1.08,0,0,.05,1.08,0,1.08s-.65-1.08-.68-1.08c-.05,0,.04,1.09,0,1.09,0,0-.35-1.09-.39-1.09,0,0,0,1.09,0,1.09-.05,0-.87-1.09-.87-1.09,0,0,.03,1.14,0,1.14,0,0-1.58-1.14-1.67-1.14-.07,0,.04,1.43,0,1.43,0,0-1.52-1.43-1.63-1.43,0,0,.1,2.36,0,2.36-.09,0-.47-2.36-.55-2.36-.14,0,0,3.04,0,3.04-.17,0-1.16-3.04-1.25-3.04,0,0,.26,6.72,0,6.72L.86,1.09s.19,7.13,0,7.13"/>
        </g>
        <g>
          <path class="cls-1" d="M37.33,77.53c-.14,0,.15,3.45,0,3.45-.07,0-1.25-1.57-1.25-1.57-.08,0,0,1.57,0,1.57-.04,0-.51-1.31-.51-1.31-.07,0,0,1.31,0,1.31-.07,0-.34-1.18-.37-1.18,0,0,0,1.18,0,1.18-.07,0-.88-1.01-.95-1.01,0,0,.04,1.01,0,1.01l-.59-.97v.98"/>
          <path class="cls-1" d="M47.26,80.01c-.05,0,.06.95,0,.95,0,0-.94-1.03-.95-1.03,0,0,.03,1.03,0,1.03-.02,0-.41-1.12-.41-1.12,0,0,.05,1.12,0,1.12-.08,0-1.49-1.92-1.49-1.92,0,0,.07,1.92,0,1.92-.14,0-.81-3.39-.81-3.39,0,0,.19,3.39,0,3.39"/>
          <path class="cls-1" d="M47.29,1.06v.97s-.63-.97-.66-.97c0,0,0,.99,0,.99,0,0-.29-.99-.32-.99,0,0,.01,1.03,0,1.03-.01,0-1.21-1.02-1.22-1.02-.04,0,0,1.35,0,1.35-.05,0-.41-1.35-.41-1.35v1.58c-.12,0-1.33-1.57-1.33-1.57v4.62c-.21,0-.72-4.62-.72-4.62-4.55,0,0,79.89,0,79.89,0,0,1.45-79.89-.68-79.89-1.64,0,3.24,79.89,0,79.89,0,0,2.53-79.89-1.35-79.89,0,0,.92,79.89,0,79.89-.14,0-.65-79.89-.65-79.89v79.89L38.42,1.08c-1.4,0,4.05,79.89,0,79.89-3.38,0,.04-79.89-.61-79.89v79.89c-2.87,0-.4-79.89-.4-79.89-.12,0,0,3.58,0,3.58-.09,0-.57-3.58-.71-3.58-.06,0,0,2.01,0,2.01-.07,0-1-2-1-2v1.29s-.39-1.29-.41-1.29v1.15s-.43-1.15-.44-1.15c0,0,0,1.05,0,1.05-.02,0-1.21-1.05-1.21-1.05,0,0,.04.94,0,.94"/>
        </g>
        <path class="cls-2" d="M30.02.56H.05l-.05,8.17h2c.91-5.09,1.86-6.04,6.4-6.04h3.22v71.89c0,3.68-.86,4.81-3.72,4.77h-1v2h16.17v-2h-1c-2.86.04-3.72-1.09-3.72-4.77V2.7s3.36,0,3.36,0c4.13,0,5.22,1,6.36,6.04h2l-.05-8.17ZM28.46,8.24c-1.15-4.9-2.48-6.04-6.76-6.04h-3.86v72.39c0,3.34.67,5.27,4.06,5.27h.66s0,1,0,1H7.4v-1h.66c3.4,0,4.06-1.93,4.06-5.27V2.2h-3.72c-4.65,0-5.87,1.03-6.82,6.04H.5l.04-7.17h28.98l.04,7.17h-1.1Z"/>
        <path class="cls-2" d="M47.68,2.56h.54V.56h-15.26v2h.45c3.04-.04,3.77.86,3.81,4.63v67.39c0,3.68-.86,4.77-3.72,4.77h-.54v2h15.26v-2h-.59c-2.86,0-3.68-1.09-3.68-4.77V7.19c.04-3.77.77-4.68,3.72-4.63ZM47.63,79.85h.09v1h-14.26v-1h.04c3.16,0,4.22-1.33,4.22-5.27V7.19c-.04-3.55-.65-5.13-4.11-5.13h-.16s0-1,0-1h14.26v1h-.25c-3.39,0-3.98,1.58-4.02,5.13v67.4c0,3.42.67,5.27,4.18,5.27Z"/>
      </g>
      <g>
        <g>
          <path class="cls-1" d="M169.54,51.56s0,.97,0,.97c-.03,0-.91-.97-.91-.97v1.02l-.35-1.02s.02,1.07,0,1.07c0,0-.38-1.07-.38-1.07-.05,0,.04,1.15,0,1.15l-1.35-1.15c-.08,0,0,1.88,0,1.88l-.52-1.88s.07,2.63,0,2.63l-.34-2.63v3.74s-.19-3.74-.39-3.74c-.49,0,.21,28.42,0,28.42,0,0-.35-28.42-.62-28.42-1.66,0,.56,28.09,0,28.09-.77,0-.34-28.09-.7-28.09v27.66c-1.54,0-.43-27.66-.43-27.66,0,0,.85,27.36,0,27.36l-1.06-27.36c-1.02,0,.73,26.44,0,26.44l-1.7-26.43s1.11,23.98,0,23.98l-1.66-23.98c-.12,0,.12,2.28,0,2.28,0,0-1.45-2.28-1.6-2.28,0,0,.05,1.15,0,1.15-.06,0-1.28-1.15-1.28-1.15-.04,0,0,.95,0,.95-.02,0-.31-.95-.35-.95,0,0,0,.94,0,.94"/>
          <path class="cls-1" d="M182.52,73.65c-.06,0,.03,2.68,0,2.68-.07,0-.62-1.16-.62-1.16,0,0,.06,2.08,0,2.08-.09,0-1.66.11-1.66.11v1.57s-1.47-.44-1.51-.44c-.01,0,0,1.41,0,1.41,0,0-.37-1.19-.38-1.19-.04,0,0,1.38,0,1.38l-1.2-.83s.01,1.32,0,1.32l-1.52-.9c-.05,0,.05,1.33,0,1.33l-1.46-1.16v1.4c-.06,0-.3-1.39-.32-1.39,0,0,.08,1.43,0,1.43-.09,0-1.33-1.51-1.42-1.51v1.6s-.5-1.68-.5-1.68c-.1,0,.01,1.69,0,1.69,0,0-1-1.97-1.13-1.97v1.94s-1.14-2.41-1.14-2.41v2.3l-.71-2.69c-.08,0,0,2.58,0,2.58-.06,0-1.38-3.99-1.61-3.99-.06,0,.1,3.61,0,3.61-.13,0-.64-4.51-.64-4.51,0,0,.24,4.31,0,4.31-.22,0-.91-6.9-.91-6.9-.35,0,.08,6.54,0,6.54"/>
          <path class="cls-1" d="M187.81,51.56s.03,1.05,0,1.05l-.32-1.05s0,1.11,0,1.11c-.08,0-1.54-1.1-1.56-1.1v1.7c-.13,0-1.23-1.7-1.23-1.7,0,0,.06,2.92,0,2.92,0,0-.77-2.92-.81-2.92-.46,0,.34,20.38,0,20.38l-.48-20.38c-.11,0,0,22.81,0,22.81-.55,0-1.01-22.81-1.29-22.81-.05,0,0,3.04,0,3.04-.06,0-1.06-3.04-1.14-3.04-.04,0,0,1.76,0,1.76-.04,0-1.38-1.75-1.42-1.75v1.13c-.08,0-.74-1.13-.74-1.13v1"/>
        </g>
        <g>
          <path class="cls-1" d="M195.44,77.44v3.39s-.27-2.39-.41-2.39c-.07,0,0,2.39,0,2.39l-1.65-1.16c-.05,0,0,1.16,0,1.16,0,0-.6-1.02-.63-1.02,0,0,.03,1.03,0,1.03-.05,0-.93-.94-1.01-.94,0,0,.03.94,0,.94"/>
          <path class="cls-1" d="M205.64,79.89v.89s-1.52-1.02-1.52-1.02c-.06,0,.02,1.03,0,1.03-.12,0-1.5-1.76-1.56-1.76,0,0,.08,1.77,0,1.77l-.35-2.15c-.12,0,0,2.15,0,2.15-.09,0-.58-3.36-.58-3.36,0,0,.18,3.37,0,3.37"/>
          <path class="cls-1" d="M216.93,56.89s.03,4.12,0,4.12c-.23,0-1.22-6.31-1.22-6.31v8.42c-.39,0-1.02-9.69-1.46-9.69,0,0,.17,10.91,0,10.91-.43,0-1.4-11.69-1.47-11.69-.24,0,.18,12.47,0,12.47-.24,0-.47-12.64-.47-12.64v12.84s-1.12-13.22-1.45-13.22c-.21,0,.02,4.46,0,4.46,0,0-.8-4.63-.98-4.63,0,0,0,2.73,0,2.73,0,0-.79-2.85-.81-2.85-.03,0,0,2.02,0,2.02,0,0-.32-2.07-.35-2.07-.1,0,.06,1.82,0,1.82l-1.27-1.95s0,1.37,0,1.37c0,0-1.22-1.47-1.3-1.47-.02,0,.03,1.18,0,1.18-.02,0-1.19-1.25-1.19-1.25,0,0,.02,1.12,0,1.12-.02,0-1.1-1.16-1.1-1.16,0,0,.05,1.12,0,1.12-.06,0-.58-1.14-.61-1.14-.05,0,0,1.13,0,1.13,0,0-1.47-1.15-1.48-1.15v1.2s-.68-1.21-.75-1.21c-1.68,0,0,29.42,0,29.42l-1.43-29.4s0,29.41,0,29.41c-1.29,0,.11-29.39-.48-29.39,0,0,.76,29.39,0,29.39-.47,0-.86-29.34-.86-29.34-1.69,0,1.05,29.34,0,29.34-1.45,0-1.17-29.28-1.64-29.28v29.29l-1.46-29.27s.06,2.51,0,2.51c0,0-.38-2.5-.47-2.5-.1,0,0,1.85,0,1.85,0,0-.26-1.85-.35-1.85,0,0,0,1.56,0,1.56l-.74-1.55v1.18c-.09,0-1.56-1.16-1.56-1.16-.05,0,0,.91,0,.91l-.41-.9s.03.89,0,.89"/>
          <path class="cls-1" d="M210.88,61.82c-.1,0,.09,3.98,0,3.98l-.92-2.03s0,2.29,0,2.29c-.05,0-1.36-1.09-1.36-1.09v6.29c-.07,0-.92-5.74-1.2-5.74,0,0,.22,3.92,0,3.92-.04,0-.9-3.7-.9-3.7v2.59s-.66-2.49-.73-2.49c-.08,0,0,1.84,0,1.84-.03,0-.65-1.77-.75-1.77,0,0,.04,1.36,0,1.36,0,0-.43-1.34-.49-1.34v1.19s-1.41-1.15-1.45-1.15v1.03s-.58-1.03-.59-1.03c-.01,0,0,1.05,0,1.05-.06,0-.83-1.05-.85-1.05v1.1"/>
          <path class="cls-1" d="M222.93,79.83s.04.96,0,.96c0,0-.61-1.06-.62-1.06-.05,0,.05,1.06,0,1.06-.04,0-1.26-1.6-1.26-1.6-.01,0,.09,1.6,0,1.6l-.92-2.26c-.1,0,0,2.26,0,2.26-.02,0-1.33-3.58-1.33-3.58,0,0,.02,3.58,0,3.58,0,0-1.23-5.35-1.41-5.35-.23,0,0,5.35,0,5.35-.27,0-.53-6.08-.53-6.08-.31,0,0,6.08,0,6.08-.09,0-1.57-8.34-1.57-8.34-.13,0,0,8.35,0,8.35-.45,0-.88-10.01-1.15-10.01,0,0,.05,9.01,0,9.01-.17,0-.89-10.77-1.31-10.77-.1,0,0,9.03,0,9.03-.1,0-1.43-10.54-1.43-10.54-.24,0,0,8.36,0,8.36,0,0-1-9.26-1.31-9.26-.14,0,.12,7.08,0,7.08,0,0-.14-7.3-.35-7.3-.36,0,.12,6.71,0,6.71"/>
        </g>
        <g>
          <path class="cls-1" d="M230.22,77.51s.14,3.31,0,3.31c-.12,0-1.57-1.3-1.64-1.3v1.31c-.06,0-1.32-.97-1.32-.97-.01,0,0,.98,0,.98-.07,0-.82-.93-.86-.93,0,0,.01.93,0,.93"/>
          <path class="cls-1" d="M250.7,70.8c-.18,0,.46,8.02,0,8.02,0,0-1.14-3.79-1.35-3.79-.03,0,.19,4.45,0,4.45-.08,0-1.19-2.6-1.22-2.6-.09,0,.16,3.06,0,3.06-.06,0-1.17-1.96-1.17-1.96-.06,0,.12,2.27,0,2.27,0,0-.71-1.79-.77-1.79-.09,0,0,1.94,0,1.94-.06,0-.96-1.51-1.01-1.51v1.64c-.06,0-.89-1.36-.94-1.36v1.45l-.32-1.36s.03,1.38,0,1.38c0,0-1.46-1.07-1.46-1.07v1.14l-1.41-.97s0,1.01,0,1.01c-.04,0-.38-.99-.38-.99v1c-.1,0-1.3-1.04-1.3-1.04-.03,0,.01,1.06,0,1.06,0,0-1.58-1.57-1.69-1.57v1.58s-1.08-2.95-1.08-2.95c0,0,.07,2.96,0,2.96"/>
          <path class="cls-1" d="M257.25,63.26c-.23,0,0,6.37,0,6.37-.28,0-1.05-9.66-1.05-9.66-.45,0,0,12.92,0,12.92-.26,0-.63-14.88-1.12-14.88-.73,0,.4,16.87,0,16.87-.07,0-.71-18.02-.89-18.02v19.15c-1.07,0-.46-20.34-1.2-20.34s0,21.54,0,21.54c-.55,0-.94-22.79-1.69-22.79,0,0,1.33,24.05,0,24.05,0,0,.41-24.47-.72-24.47,0,0,.02,7.66,0,7.66-.03,0-1.39-8.33-1.4-8.33-.05,0,.05,4.43,0,4.43-.26,0-1.13-4.87-1.16-4.87v3.17s-.73-3.4-.73-3.4c-.11,0,0,2.62,0,2.62,0,0-.32-2.74-.44-2.74-.09,0,.14,2.34,0,2.34l-1.36-2.66v1.65l-1.14-1.86s.02,1.27,0,1.27l-1.52-1.48s.04.96,0,.96l-1.52-1.12s.02.84,0,.84c0,0-1.42-.95-1.49-.95v.82c-.08,0-1-.87-1.02-.87-.03,0,.04.85,0,.85s-.98-.88-1.01-.88v.88s-.73-.9-.77-.9v.93s-1.53-.95-1.63-.95c-1.38,0,0,29.4,0,29.4-.04,0,.28-29.41-.31-29.41v29.41l-.75-29.41c-1.71,0,1.75,29.41,0,29.41-1.1,0,.44-29.41-.72-29.41,0,0,1.17,29.41,0,29.41l-1.03-29.4c-.14,0,1.4,29.4,0,29.4-1.12,0,.54-29.38-1.05-29.38-.04,0,0,29.38,0,29.38,0,0,.26-29.35-1.04-29.35-.1,0,.18,5.35,0,5.35l-1.45-5.3v1.65l-.87-1.62v1.21c-.07,0-1.62-1.14-1.62-1.14v.91"/>
        </g>
        <g>
          <path class="cls-1" d="M279.65,60.87c-.32,0,0,9.28,0,9.28l-.86-7.92c-.16,0,0,6.35,0,6.35-.16,0-.84-4.34-1.1-4.34,0,0,.05,2.37,0,2.37,0,0-1.22-1.88-1.26-1.88-.04,0,.04,1.39,0,1.39,0,0-1.28-1.24-1.37-1.24,0,0,.06,1.1,0,1.1-.03,0-1.6-1.09-1.6-1.09-.02,0,0,1.08,0,1.08l-.93-1.08c-.06,0,.06,1.09,0,1.09-.03,0-1.07-1.09-1.07-1.09-.06,0,.05,1.1,0,1.1"/>
          <path class="cls-1" d="M265.19,77.45c-.17,0,0,3.39,0,3.39-.05,0-.56-2.21-.56-2.21-.12,0,.06,2.21,0,2.21-.04,0-1-1.38-1-1.38v1.38c-.08,0-.9-1.06-.98-1.06v1.06s-.34-1-.4-1v1s-.8-.96-.8-.96c-.01,0,0,.96,0,.96"/>
          <path class="cls-1" d="M284.93,53.95s.07,4.35,0,4.35c-.39,0-1.66-6.74-1.66-6.74v4.33c-.07,0-.89-4.33-.91-4.33-.02,0,0,2.88,0,2.88-.1,0-.71-2.88-.71-2.88-.11,0,.03,2.19,0,2.19l-.83-2.19c-.1,0,0,1.66,0,1.66,0,0-1.57-1.66-1.57-1.66-.02,0,.06,1.18,0,1.18-.05,0-.47-1.18-.49-1.18,0,0,.04,1.11,0,1.11-.09,0-.96-1.11-1.04-1.11-.06,0,.02,1.05,0,1.05-.07,0-1.07-1.05-1.07-1.05-.01,0,.05,1.05,0,1.05-.03,0-1.49-1.05-1.49-1.05,0,0,0,1.06,0,1.06-.06,0-1-1.05-1-1.05,0,0,0,1.06,0,1.06l-.84-1.06s.02,1.06,0,1.06l-.62-1.06s.06,1.07,0,1.07c-.04,0-.97-1.06-.97-1.06,0,0,.02,1.07,0,1.07-.04,0-.92-1.07-.97-1.07-.54,0,1.51,29.26,0,29.26-.92,0-1.54-29.26-1.54-29.26-.46,0,.05,29.26,0,29.26,0,0-.55-29.26-1.5-29.26,0,0,.24,29.26,0,29.26,0,0-.56-29.26-.96-29.26v29.26c-.39,0-.34-29.26-.7-29.26v29.26c-1.15,0-.87-29.26-.87-29.26v3.38c-.2,0-1.62-3.38-1.62-3.38v1.26l-.67-1.26s0,1.03,0,1.03c-.02,0-1.06-1.03-1.09-1.03,0,0,0,.9,0,.9"/>
          <path class="cls-1" d="M286.96,72.11s.28,8.7,0,8.7c0,0-1.3-6.83-1.36-6.83-.08,0,.08,6.83,0,6.83-.02,0-.67-5.04-.81-5.04-.11,0,.15,5.05,0,5.05-.05,0-.27-4.32-.43-4.32-.07,0,.23,4.32,0,4.32l-1.26-2.82c-.14,0,0,2.82,0,2.82l-.85-2.18s.07,2.18,0,2.18c0,0-1.6-1.44-1.67-1.44v1.44l-.71-1.27s.01,1.27,0,1.27c-.03,0-.76-1.15-.77-1.15-.02,0,0,1.15,0,1.15-.05,0-.79-1.1-.81-1.1,0,0,.02,1.1,0,1.1,0,0-1.01-1.08-1.07-1.08-.04,0,0,1.08,0,1.08-.04,0-.82-1.09-.9-1.09v1.09s-1.46-1.11-1.46-1.11c-.04,0,0,1.11,0,1.11,0,0-1.41-1.39-1.41-1.39,0,0,.05,1.39,0,1.39-.09,0-.9-1.94-.98-1.94,0,0,.07,1.94,0,1.94-.08,0-.88-3.24-.9-3.24-.19,0,.18,3.24,0,3.24"/>
        </g>
        <g>
          <path class="cls-1" d="M310.12,51.56v7.55s-.07-7.54-.46-7.54c-.32,0,0,7.55,0,7.55-.3,0-1.46-5.02-1.55-5.02-.03,0,.06,2,0,2-.04,0-1.12-3-1.13-3,0,0,.03,1.44,0,1.44,0,0-.82-2.14-.96-2.14v1.23s-.45-1.53-.51-1.53v1.16s-.81-1.58-.86-1.58c0,0,.04,1.09,0,1.09-.12,0-1.43-1.54-1.46-1.54,0,0,.01,1.04,0,1.04l-.67-1.15s0,1.04,0,1.04l-.47-1.09s.03,1.06,0,1.06c-.04,0-.93-1.08-.99-1.08-.04,0,.04,1.1,0,1.1-.08,0-.94-1.03-.94-1.03,0,0,.02,1.21,0,1.21,0,0-.33-1.17-.35-1.17,0,0,.05,1.28,0,1.28-.06,0-1.67-.83-1.67-.83-.06,0,.06,1.89,0,1.89s-1.66-1.03-1.67-1.03c0,0,.08,13.09,0,13.09,0,0-1.04-12.02-1.27-12.02s0,10.91,0,10.91c-.19,0-.16-10.25-.58-10.25,0,0,.1,9.59,0,9.59-.06,0-.98-7.8-1.02-7.8,0,0,.08,6,0,6"/>
          <path class="cls-1" d="M308.29,76.84s.02,3.49,0,3.49l-1.56-1.37s.05,2,0,2c-.09,0-1.38-1.18-1.46-1.18-.05,0,0,1.5,0,1.5,0,0-.79-1.25-.85-1.25-.06,0,0,1.34,0,1.34l-1.39-1.19s0,1.19,0,1.19c0,0-1.12-1.28-1.19-1.28,0,0,.05,1.14,0,1.14,0,0-.58-1.26-.64-1.26v1.14s-1.05-1.5-1.14-1.5c-.02,0,0,1.17,0,1.17l-.37-1.33s0,1.19,0,1.19c-.01,0-1.13-1.89-1.19-1.89,0,0,.06,1.33,0,1.33,0,0-1.02-2.22-1.06-2.22,0,0,.01,1.55,0,1.55,0,0-.88-2.69-1-2.69-.09,0,0,1.85,0,1.85-.14,0-1.04-3.89-1.2-3.89-.17,0,0,2.88,0,2.88-.03,0-.72-4.79-.72-4.79-.07,0,.3,6.18,0,6.18-.34,0-1.29-7.68-1.33-7.68-.35,0,0,9.09,0,9.09"/>
          <path class="cls-1" d="M312.67,70.56s.1,4.49,0,4.49c-.23,0-1.27-7.15-1.27-7.15,0,0,0,9.8,0,9.8-.41,0-1.36-11.27-1.36-11.27-.59,0,0,12.74,0,12.74l-.58-13.2c-.1,0,.03,13.65,0,13.65-.82,0-.42-13.94-.42-13.94-.78,0,.33,14.22,0,14.22,0,0,.19-14.53-.47-14.53,0,0,.28,9.77,0,9.77s-.42-10.02-.42-10.02c-.35,0,.15,8.15,0,8.15l-.82-8.61v7.39c-.4,0-1.43-8.13-1.47-8.13-.15,0,.3,6.84,0,6.84-.15,0-.11-7.08-.51-7.08,0,0,.4,6.73,0,6.73s-1.12-7.24-1.12-7.24c-.3,0,0,6.57,0,6.57-.1,0-.94-7.03-1.06-7.03-.03,0,.11,6.5,0,6.5,0,0-.26-6.79-.64-6.79-.34,0,.11,6.48,0,6.48l-1.17-7.05v6.49c-.43,0-1.65-7.46-1.69-7.46v6.62c-.42,0-.99-7.71-1.39-7.71-.07,0,0,6.97,0,6.97-.38,0-.67-7.9-.76-7.9,0,0,.02,7.46,0,7.46l-.34-8.14v7.93"/>
        </g>
        <g>
          <g>
            <path class="cls-1" d="M131.98,77.45v3.39s-.98-1.69-1.06-1.69c-.04,0,.05,1.69,0,1.69-.01,0-1.58-1.06-1.58-1.06-.01,0,.05,1.07,0,1.07l-.74-.98c-.05,0,0,.98,0,.98,0,0-.37-.97-.37-.97v.97"/>
            <path class="cls-1" d="M142.3,51.56v.97s-.7-.97-.76-.97c-.05,0,0,.98,0,.98l-1.48-.98s.02,1.23,0,1.23c-.07,0-.46-1.23-.46-1.23-.03,0,.05,1.43,0,1.43,0,0-.64-1.42-.66-1.42,0,0,0,1.92,0,1.92,0,0-.67-1.92-.77-1.92-.04,0,.07,3.52,0,3.52,0,0-.71-3.52-.75-3.52-.11,0,1.49,29.27,0,29.27-1.35,0-.31-29.27-.94-29.27-.39,0,.79,29.27,0,29.27-.47,0-.57-29.26-1.4-29.26v29.27s-1.22-29.26-1.57-29.26c-1.34,0,1.59,29.26,0,29.26-.6,0-.46-29.26-1.22-29.26-1.09,0,0,29.26,0,29.26,0,0-.03-29.26-1.65-29.26,0,0,.01,1.43,0,1.43-.11,0-1.26-1.43-1.34-1.43-.01,0,0,1.01,0,1.01,0,0-1.06-1.01-1.07-1.01-.01,0,0,.94,0,.94"/>
            <path class="cls-1" d="M153.71,72.2s.1,8.61,0,8.61c-.49,0-.46-8.61-.46-8.61,0,0,.14,8.61,0,8.61,0,0-1.34-5.51-1.38-5.51-.24,0,0,5.51,0,5.51-.11,0-1.43-3.19-1.59-3.19v3.2s-1.04-2.31-1.09-2.31c0,0,.04,2.31,0,2.31,0,0-1.34-1.6-1.45-1.6-.02,0,0,1.6,0,1.6-.04,0-.48-1.44-.52-1.44v1.44s-.53-1.3-.61-1.3c0,0,.02,1.3,0,1.3,0,0-1.05-1.15-1.1-1.15,0,0,.02,1.15,0,1.15,0,0-.83-1.1-.89-1.1-.05,0,0,1.1,0,1.1,0,0-1.28-1.09-1.29-1.09v1.09s-.28-1.09-.32-1.09.06,1.09,0,1.09c0,0-.7-1.12-.78-1.12,0,0,.05,1.12,0,1.12,0,0-.64-1.17-.66-1.17,0,0,.02,1.17,0,1.17l-1.25-1.38s.06,1.38,0,1.38c0,0-1.31-2.01-1.31-2.01v2.01l-.78-3.22c-.17,0,.19,3.22,0,3.22"/>
          </g>
          <path class="cls-2" d="M152.64,71.67c-1.45,5.58-3.68,7.54-8.45,7.54h-1.18c-3.91-.09-4.59-.77-4.5-4.72v-16.8c.05-3.77.77-4.68,3.77-4.63h.86v-2h-15.67v2h.5c3.04-.04,3.77.86,3.81,4.63v16.94c0,3.68-.82,4.72-3.72,4.72h-.59v2h26.97l.14-9.67h-1.95ZM153.97,80.84h-25.98v-1h.09c3.2,0,4.22-1.27,4.22-5.22v-16.94c-.04-3.55-.65-5.13-4.11-5.13h-.21s0-1,0-1h14.67v1h-.57c-3.43,0-4.02,1.58-4.06,5.13v16.81c-.1,4.2.79,5.13,4.98,5.22h1.19c4.9,0,7.32-2.05,8.83-7.54h1.06l-.12,8.67Z"/>
        </g>
        <path class="cls-2" d="M177.84,51.05v2h.27c3,.09,4.27,1.63,4.22,5.09v10.22q-.05,4.45-.36,5.4c-1.09,3.36-4.36,5.59-8.22,5.59-2.86,0-5.36-1.27-6.54-3.36-.86-1.5-1.14-3.22-1.14-7.13v-11.17c.05-3.77.77-4.68,3.77-4.63h.54v-2h-15.26v2h.45c3-.04,3.72.86,3.77,4.63v12.99c.05,2.54.45,4.27,1.45,5.99,1.95,3.27,6.13,5.27,11.03,5.27,5.77,0,9.9-2.27,11.76-6.45.77-1.73,1-3.27,1-7.04v-10.67c-.09-2.95,1.04-4.4,3.77-4.72h.32v-2h-10.85ZM188.2,52.57c-2.9.4-4.18,2.06-4.09,5.21v10.66c0,3.64-.21,5.18-.96,6.83-1.79,4.02-5.7,6.15-11.31,6.15-4.69,0-8.75-1.92-10.6-5.02-.95-1.64-1.34-3.25-1.38-5.75v-12.98c-.04-3.55-.64-5.13-4.07-5.13h-.16s0-1,0-1h14.26v1h-.25c-3.43,0-4.02,1.58-4.06,5.13v11.18c0,4.01.29,5.8,1.2,7.38,1.26,2.23,3.93,3.61,6.97,3.61,4.05,0,7.54-2.38,8.7-5.93q.34-1.02.39-5.55v-10.22c.05-3.63-1.38-5.41-4.5-5.58v-1.01h9.85v1.02Z"/>
        <g>
          <path class="cls-2" d="M211.21,59.13c0-1.54-.3-2.82-.89-3.8-1.13-2.02-2.94-2.74-6.88-2.74-.51,0-.93,0-1.54.05l-.46.04v13.22h1.45c3.06,0,4.55-.26,5.71-.98,1.69-.94,2.6-2.95,2.6-5.78ZM208.35,64.49c-1.09.68-2.59.91-5.45.91h-.95v-12.26c.59-.05,1-.05,1.5-.05,3.72,0,5.4.64,6.45,2.5.54.91.82,2.09.82,3.54,0,2.63-.82,4.5-2.36,5.36Z"/>
          <path class="cls-2" d="M223.57,79.34c-2.32-.14-3.81-1.45-7.04-6.13-3.18-4.72-4.09-5.81-5.68-6.81,4.72-1.32,6.99-3.72,6.99-7.49,0-2.91-1.59-5.31-4.45-6.63-1.95-.95-6.22-1.45-11.99-1.45-.91,0-1.73,0-2.45.04-.86.05-1.45.09-1.59.09l-6.49.09v2h.59c3-.04,3.72.86,3.77,4.63v16.89c0,3.68-.82,4.77-3.72,4.77h-.73v2h15.71v-2h-.86c-2.86,0-3.68-1.09-3.68-4.77v-6.99h.27c3.41-.18,3.68.09,7.54,6.58,2.09,3.59,3.77,5.95,5.09,7.17h8.99v-2h-.27ZM223.34,80.84h-8.29c-1.26-1.23-2.89-3.56-4.85-6.93-3.44-5.78-4.17-6.87-6.91-6.87-.33,0-.69.01-1.09.04h-.75s0,7.49,0,7.49c0,3.42.67,5.27,4.18,5.27h.36v1h-14.71v-1h.23c3.2,0,4.22-1.28,4.22-5.27v-16.89c-.04-3.55-.64-5.13-4.06-5.13h-.29s0-1,0-1l6-.08c.07,0,.26-.01.55-.03.27-.02.63-.04,1.06-.06.72-.04,1.51-.04,2.43-.04,5.74,0,9.92.5,11.77,1.4,2.69,1.24,4.17,3.43,4.17,6.18,0,3.52-2.11,5.75-6.63,7.01l-1.09.3.96.6c1.52.95,2.39,2.01,5.53,6.67,3.25,4.71,4.84,6.13,7.23,6.34v1.01Z"/>
        </g>
        <g>
          <path class="cls-2" d="M238.55,52.37c-.65,0-1.06,0-1.85.05l-.47.03v21.13c0,4.6.6,6.13,4.18,6.13,1.38,0,3.14-.32,4.84-.89,3.62-1.16,5.79-5.73,5.79-12.23,0-5.39-1.32-9.17-4.03-11.55-2.18-1.94-4.47-2.67-8.46-2.67ZM245.09,78.34c-1.63.54-3.36.86-4.68.86-3.04,0-3.68-1-3.68-5.63v-20.66c.77-.05,1.18-.05,1.82-.05,3.86,0,6.04.68,8.13,2.54,2.59,2.27,3.86,5.95,3.86,11.17,0,6.27-2.04,10.67-5.45,11.76Z"/>
          <path class="cls-2" d="M249.08,52.64c-3.13-1.23-7.67-1.82-14.17-1.82-2.77,0-3.91.04-8.9.27l-.32.05v1.95h.5c3-.05,3.81.95,3.81,4.68v16.8c.05,3.68-.86,4.81-3.72,4.77h-.64v2h11.76c6.4,0,8.81-.18,11.03-.91,6.04-2,9.72-7.27,9.72-13.99s-3.31-11.53-9.08-13.8ZM248.29,79.96c-2.12.69-4.46.88-10.88.88h-11.26v-1h.3c1.39,0,2.34-.3,2.98-.95.79-.8,1.11-2.09,1.08-4.33v-16.8c0-3.43-.64-5.18-4.12-5.18h-.19s0-1.01,0-1.01c4.79-.22,5.93-.26,8.72-.26,6.44,0,10.88.57,13.99,1.78,5.57,2.19,8.76,7.05,8.76,13.34s-3.5,11.57-9.38,13.51Z"/>
        </g>
        <path class="cls-2" d="M285.86,71.58c-1.54,5.68-3.72,7.72-8.36,7.63h-1.27c-3.63.14-4.63-1.04-4.5-5.31v-7.4h3.04c2.95.05,3.63.73,3.68,3.81v.36h2.04v-10.31h-2.04v.32c-.09,3-.73,3.63-3.77,3.68h-2.95v-11.22h5.13c4.18-.14,5.68,1.09,6.95,5.68h2l-.5-7.77h-24.39v1.95h.5c2.68-.09,3.59,1.13,3.59,4.68v16.89c.05,3.63-.91,4.86-3.72,4.77h-.59v2h26.79l.36-9.76h-2ZM287.01,80.84h-25.81v-1h.37c1.3,0,2.2-.29,2.83-.94.79-.81,1.14-2.14,1.11-4.34v-16.89c0-3.11-.65-5.18-3.82-5.18h-.27s0-.95,0-.95h23.42l.43,6.77h-1.09c-1.27-4.35-2.89-5.69-6.74-5.69-.2,0-.4,0-.6.01h-5.62s0,12.22,0,12.22h3.45c3.24-.05,4.14-.88,4.26-4h1.05v9.31h-1.05c-.07-3.23-.99-4.13-4.17-4.18h-3.55v7.9c-.08,2.51.23,3.9,1.08,4.77.7.73,1.75,1.05,3.39,1.05.18,0,.36,0,.55-.01h1.55c4.54,0,6.86-2.07,8.44-7.63h1.1l-.33,8.76Z"/>
        <path class="cls-2" d="M311.06,66.58c-1.32-1.36-3.45-2.59-7.49-4.31-4.54-2-6.08-3.45-6.08-5.77s1.77-3.86,4.31-3.86c3.36,0,6.08,2.63,7.22,6.99h1.95v-8.58h-2.04c-.23,1.27-.32,1.5-.86,2.27-1.95-1.91-4.13-2.82-6.68-2.82-5.04,0-8.9,3.68-8.9,8.49,0,2.18.82,4.27,2.23,5.72,1.41,1.5,3.18,2.54,7.81,4.72,3.95,1.82,5.59,3.5,5.59,5.72,0,2.59-2.18,4.5-5.09,4.5-2.63,0-4.9-1.36-6.54-3.86-.77-1.23-1.36-2.72-1.91-5.04h-2.13v10.13h2.13c.23-1.09.5-1.91.91-2.59,2,2.32,5,3.63,8.22,3.63,5.63,0,9.85-3.9,9.85-9.13,0-2.36-.91-4.59-2.5-6.22ZM303.7,81.43c-3.09,0-5.94-1.26-7.84-3.46l-.45-.52-.36.59c-.37.62-.65,1.36-.88,2.35h-1.23v-9.13h1.24c.51,2.08,1.1,3.57,1.88,4.81,1.75,2.68,4.16,4.09,6.96,4.09,3.18,0,5.59-2.15,5.59-5,0-2.44-1.76-4.28-5.88-6.18-4.68-2.2-6.32-3.19-7.66-4.61-1.33-1.37-2.09-3.33-2.09-5.38,0-4.56,3.61-7.99,8.4-7.99,2.42,0,4.48.87,6.33,2.67l.42.41.34-.48c.53-.75.68-1.07.87-2.06h1.13v7.58h-1.07c-1.26-4.39-4.08-6.99-7.6-6.99-2.83,0-4.81,1.79-4.81,4.36s1.61,4.12,6.38,6.23c3.96,1.69,6.08,2.91,7.33,4.2,1.52,1.56,2.36,3.65,2.36,5.87,0,4.92-4.02,8.63-9.35,8.63Z"/>
      </g>
      <g>
        <g>
          <path class="cls-1" d="M111.15,63.32s0,1.1,0,1.1c-.06,0-1.21-1.09-1.21-1.09-.04,0,0,1.61,0,1.61,0,0-.44-1.61-.49-1.61-.08,0,.08,1.92,0,1.92-.07,0-.29-1.92-.34-1.92v2.18s-.47-2.18-.56-2.18v2.71s-1-2.7-1.09-2.7c0,0,.1,4.06,0,4.06-.19,0-1.56-4.05-1.56-4.05-.24,0,0,6.7,0,6.7,0,0-.62-6.7-.66-6.7-.11,0,0,1.87,0,1.87-.02,0-1.02-1.87-1.03-1.87-.02,0,0,1.16,0,1.16l-.69-1.15s0,.97,0,.97"/>
          <path class="cls-1" d="M99.04,77.02c-.06,0,0,1.41,0,1.41,0,0-.9-.65-.92-.65-.07,0,.01,1.32,0,1.32-.07,0-.33-1.07-.39-1.07-.08,0,.02,1.34,0,1.34-.02,0-1.47-.65-1.47-.65-.04,0,.03,1.49,0,1.49-.02,0-.91-1.27-.99-1.27-.1,0,0,1.71,0,1.71-.09,0-.31-1.67-.37-1.67,0,0,.01,1.82,0,1.82l-1.34-1.91s0,2.28,0,2.28c0,0-.24-2.36-.34-2.36-.02,0,0,2.44,0,2.44,0,0-.7-2.69-.73-2.69-.07,0,.09,2.79,0,2.79,0,0-1.53-3.74-1.61-3.74,0,0,.08,3.75,0,3.75-.05,0-1.09-4.88-1.21-4.88,0,0,.01,4.69,0,4.69-.14,0-1.23-7.35-1.62-7.35,0,0,.07,6.82,0,6.82"/>
          <path class="cls-1" d="M90.38,64.9c-.08,0,0,1.4,0,1.4,0,0-.59-.99-.62-.99,0,0,.08,1.49,0,1.49-.09,0-1.69-.36-1.69-.36v2.49s-1.18-1.57-1.19-1.57v12.63c-.05,0-.77-11.29-1.42-11.29-.49,0,0,10.11,0,10.11-.41,0-.7-8.71-1.05-8.71v7.34s-.71-5.73-.73-5.73c0,0,.17,4.1,0,4.1"/>
          <path class="cls-1" d="M100.52,55.28s.04,3.2,0,3.2c-.15,0-.16-3.84-.32-3.84-.05,0,0,4.53,0,4.53-.24,0-1.59-6.08-1.59-6.08,0,0,.41,8.01,0,8.01,0,0-.53-8.46-.91-8.46-.1,0,0,1.84,0,1.84l-.45-2c-.06,0,.02,1.5,0,1.5-.06,0-.26-1.59-.34-1.59v1.32c-.06,0-.86-1.5-.9-1.5-.06,0,0,1.04,0,1.04-.03,0-1.06-1.12-1.09-1.12-.01,0,.05.92,0,.92-.08,0-1.49-.83-1.53-.83-.05,0,0,1.12,0,1.12-.06,0-1.64-.68-1.64-.68,0,0,.12,2.41,0,2.41-.07,0-1.34-1.69-1.34-1.69,0,0,.57,10.84,0,10.84,0,0-.3-10.56-.34-10.56,0,0,.11,9.99,0,9.99l-1.01-8.82c-.32,0,0,6.94,0,6.94-.21,0-.6-5.65-.6-5.65v4.08"/>
          <path class="cls-1" d="M98.14,58.81s.08,2.68,0,2.68c0,0-1.34-.71-1.42-.71-.07,0,.06,1.68,0,1.68-.04,0-1.47-.49-1.5-.49,0,0,.03,1.39,0,1.39-.04,0-.64-.96-.64-.96-.15,0,.34,7.59,0,7.59l-.88-8.66c-.23,0,.23,7.46,0,7.46-.28,0-.58-8.98-1.02-8.98,0,0,.41,7.62,0,7.62,0,0-.32-8.92-.67-8.92-.27,0,.16,8.03,0,8.03"/>
          <path class="cls-1" d="M105.46,68.25s.12,2.61,0,2.61c0,0-1.13-.12-1.13-.12v1.98s-1.34.21-1.4.21c-.13,0,0,6.94,0,6.94-.09,0-.19-6.8-.36-6.8v6.56l-1.31-8.29c-.16,0,.35,7.17,0,7.17-.18,0,.1-7.57-.3-7.57,0,0,.25,7.25,0,7.25,0,0,0-7.85-.45-7.85-.06,0,.43,7.4,0,7.4l-.44-7.98c-.11,0,.2,7.84,0,7.84,0,0-.62-9.07-.93-9.07v7.67s-1.3-9.89-1.68-9.89v7.58c-.56,0-1.18-9.53-1.47-9.53,0,0,.02,7.52,0,7.52-.23,0,0-8.12-.45-8.12,0,0,.09,7.51,0,7.51"/>
          <path class="cls-1" d="M113.22,76.32s0,1.4,0,1.4c-.05,0-.83-.68-.83-.68,0,0,.06,2.21,0,2.21-.01,0-1.3-.61-1.3-.61-.06,0,0,1.72,0,1.72l-1.48-1.32c-.09,0,.05,1.98,0,1.98l-.34-1.98s0,2.08,0,2.08c-.04,0-.84-2.25-.98-2.25,0,0,.04,2.42,0,2.42-.09,0-1.63-3.3-1.63-3.3v3.29s-1.39-4.77-1.52-4.77c0,0,.05,4.44,0,4.44,0,0-.43-5.21-.63-5.21,0,0,.06,4.98,0,4.98l-.85-6.13v5.72"/>
        </g>
        <g>
          <path class="cls-2" d="M94.52,62.35l.39-.26c2.48-1.65,3.49-3.14,3.49-5.14,0-2.2-1.56-3.86-3.63-3.86-1.87,0-3.22,1.36-3.22,3.22,0,1.54.78,3.18,2.69,5.66l.29.37ZM94.77,53.6c1.82,0,3.13,1.45,3.13,3.36s-.95,3.18-3.27,4.72c-1.82-2.36-2.59-3.95-2.59-5.36,0-1.59,1.13-2.72,2.72-2.72Z"/>
          <path class="cls-2" d="M95.2,70.97c-1.27-1.73-2.1-2.86-3.62-4.86l-.28-.37-.39.25c-2.14,1.39-3.36,3.26-3.36,5.14,0,3.87,3.53,7.81,6.99,7.81,1.55,0,3.14-.71,4.48-2l.29-.28-.34-.57-3.77-5.13ZM94.55,78.44c-3.18,0-6.49-3.68-6.49-7.31,0-1.72,1.18-3.45,3.13-4.72,2.13,2.82,2.91,3.91,5.45,7.36l1.91,2.59.14.23c-1.23,1.18-2.68,1.86-4.13,1.86Z"/>
          <path class="cls-2" d="M112.16,75.76c-.41,1.86-1.23,2.72-2.72,2.72-1.63,0-3.09-1.09-5-3.72-.23-.27-.23-.32-.45-.63,1.09-1.5,1.5-2.13,2.68-4.4,1.86-3.36,3-4.41,5.27-4.95v-1.95h-9.26v1.95c1.63.14,2.5.82,2.5,1.95v.04l-.04.05v.13c.04.96-1.13,3.54-2.5,5.4l-3.09-4.18-3.54-4.68c3.5-1.82,5.36-4.13,5.36-6.63,0-3.13-2.72-5.31-6.63-5.31-4.31,0-7.18,2.63-7.18,6.58,0,1.91.64,3.63,2.36,6.4-5.04,3.04-7.13,5.72-7.13,9.22,0,4.5,3.95,8.17,8.81,8.17,2.86,0,5.58-1.18,8.58-3.72,2.22,2.45,4.68,3.68,7.31,3.68,2.27,0,4.45-1,5.54-2.59.64-.91.95-1.95,1.09-3.54h-1.95ZM112.62,79.01c-.99,1.45-3,2.38-5.13,2.38-2.49,0-4.82-1.18-6.94-3.52l-.32-.36-.37.31c-2.9,2.46-5.53,3.61-8.26,3.61-4.58,0-8.31-3.44-8.31-7.67,0-3.29,2-5.84,6.89-8.79l.43-.26-.27-.43c-1.67-2.68-2.29-4.34-2.29-6.14,0-3.7,2.62-6.08,6.68-6.08,3.61,0,6.13,1.98,6.13,4.81,0,2.32-1.76,4.46-5.09,6.19l-.53.27,3.9,5.15,3.49,4.72.4-.55c1.24-1.7,2.59-4.39,2.6-5.64l.04-.24c0-.81-.34-2.11-2.5-2.44v-1.01h8.26v1.06c-2.18.62-3.4,1.83-5.21,5.1-1.18,2.27-1.58,2.89-2.65,4.35l-.21.29.21.29c.08.11.13.19.17.25.08.13.14.22.3.41,2,2.77,3.57,3.9,5.38,3.9,2.05,0,2.78-1.46,3.12-2.72h1c-.15,1.21-.44,2.03-.94,2.75Z"/>
        </g>
      </g>
    </g>
  </g>
</svg>